<svg width="117" height="216" viewBox="0 0 117 216" fill="none" xmlns="http://www.w3.org/2000/svg">
<g id="Frame 3">
<g id="Vector" filter="url(#filter0_diig_19_5)">
<path d="M55.5 173.5L62.5 167L63.5 157L65 145.5V139.5L63.5 132.5L59.5 123.5C55.8333 125.482 45.8 127.947 41 127.947C36.2 127.947 31.6667 125.982 30 125L19 111.5C22.3333 112.333 30.7 114 37.5 114C46 114 48.5 117.149 59.5 123.5L55.5 114L52.5 108L47 102L46 97L44.5 89L42.5 83.268L44.5 75L46 66.5L49.5 62L51.5 61L54.5 58H58L61.5 57L65 58L69 62L63.5 61L58 62L54.5 65.5L52.5 69.268V72.768L50.5 75L49.5 79.268V83.268L51.5 85.5V91L54.5 94V99L58 103L61.5 106.5V113L65 121L69 126L69.8889 132.5L73 139.5V143.5L71 152.5C72.2256 150.564 77.0592 146.053 86.5885 143.5L98.5 137.5L96.5 149L91.5 155C87.4063 155.833 77.353 157 69.8889 155L69 157V160.5L67 168L65 173.5L61.5 178L58 183.5L55.5 187.5H43.5L51.5 181.5L55.5 173.5Z" fill="#88A69A" fill-opacity="0.05" shape-rendering="crispEdges"/>
<path d="M51.3529 121.6L51.4503 121.29L51.3217 121.25L51.2023 121.312L51.3529 121.6ZM46.7647 124L46.6263 124.294L46.7723 124.363L46.9153 124.288L46.7647 124ZM41.6667 121.6L41.4359 121.829L41.4763 121.87L41.5282 121.894L41.6667 121.6ZM38.098 118L38.3289 117.771L38.2335 117.675H38.098V118ZM33 117.675C32.8205 117.675 32.675 117.821 32.675 118C32.675 118.179 32.8205 118.325 33 118.325V118V117.675ZM75.0738 152.967L75.1129 152.644L75.0281 152.634L74.9492 152.667L75.0738 152.967ZM78.3336 153.362L78.2945 153.684L78.3956 153.697L78.4856 153.649L78.3336 153.362ZM81.5284 151.672L81.6804 151.959L81.7205 151.938L81.7534 151.906L81.5284 151.672ZM83.6028 149.682L83.5389 149.363L83.4461 149.382L83.3779 149.447L83.6028 149.682ZM87.0639 149.319C87.2399 149.283 87.354 149.112 87.3186 148.936C87.2833 148.76 87.112 148.646 86.9361 148.681L87 149L87.0639 149.319ZM55.5 173.5L55.2789 173.262L55.2357 173.302L55.2093 173.355L55.5 173.5ZM62.5 167L62.7211 167.238L62.8112 167.155L62.8234 167.032L62.5 167ZM63.5 157L63.1776 156.958L63.1766 156.968L63.5 157ZM65 145.5L65.3223 145.542L65.325 145.521V145.5H65ZM65 139.5H65.325V139.466L65.3178 139.432L65 139.5ZM63.5 132.5L63.8178 132.432L63.8107 132.399L63.797 132.368L63.5 132.5ZM55.5 114L55.7995 113.874L55.7954 113.864L55.7907 113.855L55.5 114ZM52.5 108L52.7907 107.855L52.7703 107.814L52.7396 107.78L52.5 108ZM47 102L46.6813 102.064L46.6991 102.153L46.7604 102.22L47 102ZM46 97L45.6805 97.0599L45.6813 97.0637L46 97ZM44.5 89L44.8194 88.9401L44.8149 88.916L44.8069 88.8929L44.5 89ZM42.5 83.268L42.1841 83.1915L42.1616 83.2846L42.1931 83.375L42.5 83.268ZM44.5 75L44.8159 75.0764L44.8183 75.0665L44.8201 75.0565L44.5 75ZM46 66.5L45.7435 66.3005L45.694 66.3641L45.6799 66.4435L46 66.5ZM52.5 69.268L52.2129 69.1156L52.175 69.187V69.268H52.5ZM52.5 72.768L52.742 72.9848L52.825 72.8923V72.768H52.5ZM50.5 75L50.258 74.7831L50.2025 74.845L50.1836 74.9259L50.5 75ZM49.5 79.268L49.1836 79.1938L49.175 79.2304V79.268H49.5ZM49.5 83.268H49.175V83.3923L49.258 83.4848L49.5 83.268ZM51.5 85.5H51.825V85.3757L51.742 85.2831L51.5 85.5ZM51.5 91H51.175V91.1346L51.2702 91.2298L51.5 91ZM54.5 94H54.825V93.8654L54.7298 93.7702L54.5 94ZM54.5 99H54.175V99.1221L54.2554 99.214L54.5 99ZM58 103L57.7554 103.214L57.7625 103.222L57.7702 103.23L58 103ZM61.5 106.5H61.825V106.365L61.7298 106.27L61.5 106.5ZM61.5 113H61.175V113.068L61.2022 113.13L61.5 113ZM65 121L64.7022 121.13L64.7194 121.17L64.7462 121.203L65 121ZM69 126L69.322 125.956L69.3098 125.867L69.2538 125.797L69 126ZM69.8889 132.5L69.5669 132.544L69.5731 132.59L69.5919 132.632L69.8889 132.5ZM73 139.5H73.325V139.431L73.297 139.368L73 139.5ZM73 143.5L73.3173 143.57L73.325 143.536V143.5H73ZM69 157L68.703 156.868L68.675 156.931V157H69ZM69 160.5L69.314 160.584L69.325 160.543V160.5H69ZM67 168L67.3054 168.111L67.3103 168.098L67.314 168.084L67 168ZM65 173.5L65.2565 173.699L65.2879 173.659L65.3054 173.611L65 173.5ZM61.5 178L61.2435 177.8L61.234 177.813L61.2258 177.825L61.5 178ZM58 183.5L57.7258 183.325L57.7244 183.328L58 183.5ZM55.5 187.5V187.825H55.6801L55.7756 187.672L55.5 187.5ZM43.5 187.5L43.305 187.24L42.525 187.825H43.5V187.5ZM19 111.5L19.0788 111.185L18.1307 110.948L18.748 111.705L19 111.5ZM30 125L29.748 125.205L29.7848 125.25L29.835 125.28L30 125ZM86.5885 143.5L86.6726 143.814L86.7048 143.805L86.7347 143.79L86.5885 143.5ZM98.5 137.5L98.8202 137.556L98.9309 136.919L98.3538 137.21L98.5 137.5ZM96.5 149L96.7497 149.208L96.8053 149.141L96.8202 149.056L96.5 149ZM91.5 155L91.5648 155.318L91.6766 155.296L91.7497 155.208L91.5 155ZM54.5 65.5L54.2702 65.2702L54.2358 65.3046L54.2129 65.3476L54.5 65.5ZM58 62L57.9419 61.6802L57.842 61.6984L57.7702 61.7702L58 62ZM63.5 61L63.5581 60.6802L63.5 60.6697L63.4419 60.6802L63.5 61ZM69 62L68.9419 62.3198L69.9655 62.5059L69.2298 61.7702L69 62ZM65 58L65.2298 57.7702L65.1703 57.7106L65.0893 57.6875L65 58ZM61.5 57L61.5893 56.6875L61.5 56.662L61.4107 56.6875L61.5 57ZM58 58V58.325H58.0455L58.0893 58.3125L58 58ZM54.5 58V57.675H54.3654L54.2702 57.7702L54.5 58ZM51.5 61L51.6453 61.2907L51.6925 61.2671L51.7298 61.2298L51.5 61ZM49.5 62L49.3547 61.7093L49.2887 61.7423L49.2435 61.8005L49.5 62ZM51.5 181.5L51.695 181.76L51.7564 181.714L51.7907 181.645L51.5 181.5ZM59 124L59.0973 123.69L51.4503 121.29L51.3529 121.6L51.2556 121.91L58.9027 124.31L59 124ZM51.3529 121.6L51.2023 121.312L46.6141 123.712L46.7647 124L46.9153 124.288L51.5036 121.888L51.3529 121.6ZM46.7647 124L46.9031 123.706L41.8051 121.306L41.6667 121.6L41.5282 121.894L46.6263 124.294L46.7647 124ZM41.6667 121.6L41.8975 121.371L38.3289 117.771L38.098 118L37.8672 118.229L41.4359 121.829L41.6667 121.6ZM38.098 118V117.675H33V118V118.325H38.098V118ZM70.1804 154.998L70.305 155.298L75.1983 153.267L75.0738 152.967L74.9492 152.667L70.0558 154.698L70.1804 154.998ZM75.0738 152.967L75.0347 153.289L78.2945 153.684L78.3336 153.362L78.3727 153.039L75.1129 152.644L75.0738 152.967ZM78.3336 153.362L78.4856 153.649L81.6804 151.959L81.5284 151.672L81.3764 151.384L78.1816 153.075L78.3336 153.362ZM81.5284 151.672L81.7534 151.906L83.8278 149.916L83.6028 149.682L83.3779 149.447L81.3034 151.437L81.5284 151.672ZM83.6028 149.682L83.6668 150L87.0639 149.319L87 149L86.9361 148.681L83.5389 149.363L83.6028 149.682ZM55.5 173.5L55.7211 173.738L62.7211 167.238L62.5 167L62.2789 166.762L55.2789 173.262L55.5 173.5ZM62.5 167L62.8234 167.032L63.8234 157.032L63.5 157L63.1766 156.968L62.1766 166.968L62.5 167ZM63.5 157L63.8223 157.042L65.3223 145.542L65 145.5L64.6777 145.458L63.1777 156.958L63.5 157ZM65 145.5H65.325V139.5H65H64.675V145.5H65ZM65 139.5L65.3178 139.432L63.8178 132.432L63.5 132.5L63.1822 132.568L64.6822 139.568L65 139.5ZM63.5 132.5L63.797 132.368L59.797 123.368L59.5 123.5L59.203 123.632L63.203 132.632L63.5 132.5ZM59.5 123.5L59.7995 123.374L55.7995 113.874L55.5 114L55.2005 114.126L59.2005 123.626L59.5 123.5ZM55.5 114L55.7907 113.855L52.7907 107.855L52.5 108L52.2093 108.145L55.2093 114.145L55.5 114ZM52.5 108L52.7396 107.78L47.2396 101.78L47 102L46.7604 102.22L52.2604 108.22L52.5 108ZM47 102L47.3187 101.936L46.3187 96.9363L46 97L45.6813 97.0637L46.6813 102.064L47 102ZM46 97L46.3194 96.9401L44.8194 88.9401L44.5 89L44.1806 89.0599L45.6806 97.0599L46 97ZM44.5 89L44.8069 88.8929L42.8069 83.1609L42.5 83.268L42.1931 83.375L44.1931 89.1071L44.5 89ZM42.5 83.268L42.8159 83.3444L44.8159 75.0764L44.5 75L44.1841 74.9236L42.1841 83.1915L42.5 83.268ZM44.5 75L44.8201 75.0565L46.3201 66.5565L46 66.5L45.6799 66.4435L44.1799 74.9435L44.5 75ZM52.5 69.268H52.175V72.768H52.5H52.825V69.268H52.5ZM52.5 72.768L52.258 72.5511L50.258 74.7831L50.5 75L50.742 75.2169L52.742 72.9848L52.5 72.768ZM50.5 75L50.1836 74.9259L49.1836 79.1938L49.5 79.268L49.8164 79.3421L50.8164 75.0741L50.5 75ZM49.5 79.268H49.175V83.268H49.5H49.825V79.268H49.5ZM49.5 83.268L49.258 83.4848L51.258 85.7169L51.5 85.5L51.742 85.2831L49.742 83.0511L49.5 83.268ZM51.5 85.5H51.175V91H51.5H51.825V85.5H51.5ZM51.5 91L51.2702 91.2298L54.2702 94.2298L54.5 94L54.7298 93.7702L51.7298 90.7702L51.5 91ZM54.5 94H54.175V99H54.5H54.825V94H54.5ZM54.5 99L54.2554 99.214L57.7554 103.214L58 103L58.2446 102.786L54.7446 98.786L54.5 99ZM58 103L57.7702 103.23L61.2702 106.73L61.5 106.5L61.7298 106.27L58.2298 102.77L58 103ZM61.5 106.5H61.175V113H61.5H61.825V106.5H61.5ZM61.5 113L61.2022 113.13L64.7022 121.13L65 121L65.2977 120.87L61.7977 112.87L61.5 113ZM65 121L64.7462 121.203L68.7462 126.203L69 126L69.2538 125.797L65.2538 120.797L65 121ZM69 126L68.678 126.044L69.5669 132.544L69.8889 132.5L70.2109 132.456L69.322 125.956L69 126ZM69.8889 132.5L69.5919 132.632L72.703 139.632L73 139.5L73.297 139.368L70.1859 132.368L69.8889 132.5ZM73 139.5H72.675V143.5H73H73.325V139.5H73ZM73 143.5L72.6827 143.429L70.6827 152.429L71 152.5L71.3173 152.57L73.3173 143.57L73 143.5ZM69 157H68.675V160.5H69H69.325V157H69ZM69 160.5L68.686 160.416L66.686 167.916L67 168L67.314 168.084L69.314 160.584L69 160.5ZM67 168L66.6946 167.889L64.6946 173.389L65 173.5L65.3054 173.611L67.3054 168.111L67 168ZM65 173.5L64.7435 173.3L61.2435 177.8L61.5 178L61.7565 178.199L65.2565 173.699L65 173.5ZM61.5 178L61.2258 177.825L57.7258 183.325L58 183.5L58.2742 183.674L61.7742 178.174L61.5 178ZM58 183.5L57.7244 183.328L55.2244 187.328L55.5 187.5L55.7756 187.672L58.2756 183.672L58 183.5ZM55.5 187.5V187.175H43.5V187.5V187.825H55.5V187.5ZM59.5 123.5L59.6625 123.219C56.9178 121.634 54.7035 120.249 52.7886 119.06C50.8764 117.873 49.2562 116.877 47.7116 116.08C44.6043 114.475 41.8033 113.675 37.5 113.675V114V114.325C41.6967 114.325 44.3957 115.099 47.4134 116.657C48.9313 117.441 50.5299 118.423 52.4458 119.612C54.359 120.8 56.5822 122.191 59.3375 123.781L59.5 123.5ZM37.5 114V113.675C30.7385 113.675 22.4014 112.015 19.0788 111.185L19 111.5L18.9212 111.815C22.2653 112.651 30.6615 114.325 37.5 114.325V114ZM19 111.5L18.748 111.705L29.748 125.205L30 125L30.2519 124.795L19.252 111.295L19 111.5ZM30 125L29.835 125.28C31.535 126.282 36.1253 128.272 41 128.272V127.947V127.622C36.2747 127.622 31.7983 125.683 30.165 124.72L30 125ZM41 127.947V128.272C43.4393 128.272 47.1777 127.649 50.7515 126.783C54.3228 125.918 57.7823 124.798 59.6546 123.786L59.5 123.5L59.3454 123.214C57.5511 124.184 54.1605 125.288 50.5985 126.151C47.039 127.014 43.3607 127.622 41 127.622V127.947ZM71 152.5L71.2746 152.674C72.445 150.825 77.1984 146.352 86.6726 143.814L86.5885 143.5L86.5043 143.186C76.92 145.754 72.0062 150.303 70.7254 152.326L71 152.5ZM86.5885 143.5L86.7347 143.79L98.6462 137.79L98.5 137.5L98.3538 137.21L86.4422 143.21L86.5885 143.5ZM98.5 137.5L98.1798 137.444L96.1798 148.944L96.5 149L96.8202 149.056L98.8202 137.556L98.5 137.5ZM96.5 149L96.2503 148.792L91.2503 154.792L91.5 155L91.7497 155.208L96.7497 149.208L96.5 149ZM71 152.5L70.703 152.368L69.5919 154.868L69.8889 155L70.1859 155.132L71.297 152.632L71 152.5ZM69.8889 155L69.5919 154.868L68.703 156.868L69 157L69.297 157.132L70.1859 155.132L69.8889 155ZM91.5 155L91.4352 154.681C87.3573 155.512 77.3637 156.666 69.973 154.686L69.8889 155L69.8048 155.314C77.3423 157.334 87.4554 156.155 91.5648 155.318L91.5 155ZM52.5 69.268L52.7871 69.4203L54.7871 65.6524L54.5 65.5L54.2129 65.3476L52.2129 69.1156L52.5 69.268ZM54.5 65.5L54.7298 65.7298L58.2298 62.2298L58 62L57.7702 61.7702L54.2702 65.2702L54.5 65.5ZM58 62L58.0581 62.3198L63.5581 61.3198L63.5 61L63.4419 60.6802L57.9419 61.6802L58 62ZM63.5 61L63.4419 61.3198L68.9419 62.3198L69 62L69.0581 61.6802L63.5581 60.6802L63.5 61ZM69 62L69.2298 61.7702L65.2298 57.7702L65 58L64.7702 58.2298L68.7702 62.2298L69 62ZM65 58L65.0893 57.6875L61.5893 56.6875L61.5 57L61.4107 57.3125L64.9107 58.3125L65 58ZM61.5 57L61.4107 56.6875L57.9107 57.6875L58 58L58.0893 58.3125L61.5893 57.3125L61.5 57ZM58 58V57.675H54.5V58V58.325H58V58ZM54.5 58L54.2702 57.7702L51.2702 60.7702L51.5 61L51.7298 61.2298L54.7298 58.2298L54.5 58ZM51.5 61L51.3547 60.7093L49.3547 61.7093L49.5 62L49.6453 62.2907L51.6453 61.2907L51.5 61ZM49.5 62L49.2435 61.8005L45.7435 66.3005L46 66.5L46.2565 66.6995L49.7565 62.1995L49.5 62ZM43.5 187.5L43.695 187.76L51.695 181.76L51.5 181.5L51.305 181.24L43.305 187.24L43.5 187.5ZM51.5 181.5L51.7907 181.645L55.7907 173.645L55.5 173.5L55.2093 173.355L51.2093 181.355L51.5 181.5Z" fill="#57997F" fill-opacity="0.52" style="mix-blend-mode:plus-lighter"/>
</g>
<g id="Vector 4" filter="url(#filter1_diiig_19_5)">
<path d="M66.5 60L36.5 32L51 21L66.5 60L59.3889 32H70L66.5 60L76.0885 21L88 27.5L66.5 60L88 35.5L95.5 47.5L66.5 60L88 53.5V64.5L66.5 60L98.5 69.5L94 81.5L66.5 60L86.5 79.5L79 84.5L66.5 60L75 89.5H62.5L66.5 60L60.5 81.5L47.5 76.5L66.5 60L46 70.5L41.5 60H66.5L33 54.5L36.5 42L66.5 60Z" fill="#E9BDDE" fill-opacity="0.2" shape-rendering="crispEdges"/>
<path d="M66.5 60L36.5 32L51 21L66.5 60ZM66.5 60L59.3889 32H70L66.5 60ZM66.5 60L76.0885 21L88 27.5L66.5 60ZM66.5 60L88 35.5L95.5 47.5L66.5 60ZM66.5 60L36.5 42L33 54.5L66.5 60ZM66.5 60L88 64.5V53.5L66.5 60ZM66.5 60L86.5 79.5L79 84.5L66.5 60ZM66.5 60L98.5 69.5L94 81.5L66.5 60ZM66.5 60L75 89.5H62.5L66.5 60ZM66.5 60L47.5 76.5L60.5 81.5L66.5 60ZM66.5 60H41.5L46 70.5L66.5 60Z" stroke="#DDA5CF" stroke-opacity="0.52" stroke-width="0.7" style="mix-blend-mode:plus-lighter" shape-rendering="crispEdges"/>
</g>
</g>
<defs>
<filter id="filter0_diig_19_5" x="12.1307" y="51.522" width="91.9402" height="142.303" filterUnits="userSpaceOnUse" color-interpolation-filters="sRGB">
<feFlood flood-opacity="0" result="BackgroundImageFix"/>
<feColorMatrix in="SourceAlpha" type="matrix" values="0 0 0 0 0 0 0 0 0 0 0 0 0 0 0 0 0 0 127 0" result="hardAlpha"/>
<feOffset dx="-2" dy="2"/>
<feGaussianBlur stdDeviation="2"/>
<feColorMatrix type="matrix" result="shdwTex" values="0 0 0 0 0.117647 0 0 0 0 0.117647 0 0 0 0 0.117647 0 0 0 1 0"/><feTurbulence type="fractalNoise" baseFrequency="0.074074074625968933 0.074074074625968933" numOctaves="3" seed="4200" />
<feDisplacementMap in="shdwTex" scale="10.279999732971191" xChannelSelector="R" yChannelSelector="G" result="displacedImage" width="100%" height="100%" />
<feBlend mode="normal" in2="BackgroundImageFix" result="effect1_dropShadow_19_5"/>
<feBlend mode="normal" in="SourceGraphic" in2="BackgroundImageFix" result="shape"/>
<feColorMatrix in="SourceAlpha" type="matrix" values="0 0 0 0 0 0 0 0 0 0 0 0 0 0 0 0 0 0 127 0" result="hardAlpha"/>
<feOffset dx="1" dy="1"/>
<feGaussianBlur stdDeviation="1"/>
<feComposite in2="hardAlpha" operator="arithmetic" k2="-1" k3="1"/>
<feColorMatrix type="matrix" values="0 0 0 0 0.352941 0 0 0 0 0.54902 0 0 0 0 0.470588 0 0 0 0.03 0"/>
<feBlend mode="normal" in2="shape" result="effect2_innerShadow_19_5"/>
<feColorMatrix in="SourceAlpha" type="matrix" values="0 0 0 0 0 0 0 0 0 0 0 0 0 0 0 0 0 0 127 0" result="hardAlpha"/>
<feOffset dx="-1" dy="-1"/>
<feGaussianBlur stdDeviation="2"/>
<feComposite in2="hardAlpha" operator="arithmetic" k2="-1" k3="1"/>
<feColorMatrix type="matrix" values="0 0 0 0 0.352941 0 0 0 0 0.54902 0 0 0 0 0.470588 0 0 0 0.15 0"/>
<feBlend mode="normal" in2="effect2_innerShadow_19_5" result="effect3_innerShadow_19_5"/>
<feTurbulence type="fractalNoise" baseFrequency="0.074074074625968933 0.074074074625968933" numOctaves="3" seed="4200" result="displacementX" />
<feTurbulence type="fractalNoise" baseFrequency="0.074074074625968933 0.074074074625968933" numOctaves="3" seed="4201" result="displacementY" />
<feColorMatrix in="displacementX" type="matrix" values="0 0 0 1 0  0 0 0 0 0  0 0 0 0 0  0 0 0 0 1" result="displacementXRed" />
<feColorMatrix in="displacementY" type="matrix" values="0 0 0 0 0  0 0 0 1 0  0 0 0 0 0  0 0 0 0 1" />
<feComposite in="displacementXRed" operator="arithmetic" k1="0" k2="1" k3="1" k4="0"/>
<feDisplacementMap in="effect3_innerShadow_19_5" scale="10.279999732971191" xChannelSelector="R" yChannelSelector="G" width="100%" height="100%" />
<feColorMatrix type="matrix" values="0 0 0 0 0  0 0 0 0 0  0 0 0 0 0  0 0 0 1 0" />
<feComponentTransfer result="sourceDisplacedAlpha">
<feFuncA type="gamma" exponent="0.2" />
</feComponentTransfer>
<feColorMatrix in="effect3_innerShadow_19_5" type="matrix" values="0 0 0 0 0  0 0 0 0 0  0 0 0 0 0  0 0 0 1 0" />
<feComponentTransfer result="inputSourceAlpha">
<feFuncA type="gamma" exponent="0.2" />
</feComponentTransfer>
<feComposite in="sourceDisplacedAlpha" operator="arithmetic" k1="1" k2="0" k3="0" k4="0" result="displacementAlphasMultiplied"/>
<feComposite in="displacementAlphasMultiplied"  operator="arithmetic" k1="0" k2="0" k3="-0.5" k4="0.5" result="centeringAdjustment"/>
<feComposite in="displacementX" in2="displacementAlphasMultiplied" operator="arithmetic" k1="1" k2="0" k3="0" k4="0" />
<feComposite in="centeringAdjustment" operator="arithmetic" k1="0" k2="1" k3="1" k4="0" />
<feColorMatrix  type="matrix" values="0 0 0 1 0  0 0 0 0 0  0 0 0 0 0  0 0 0 0 1" result="displacementXFinal" />
<feComposite in="displacementY" in2="displacementAlphasMultiplied" operator="arithmetic" k1="1" k2="0" k3="0" k4="0" />
<feComposite in="centeringAdjustment" operator="arithmetic" k1="0" k2="1" k3="1" k4="0" />
<feColorMatrix  type="matrix" values="0 0 0 0 0  0 0 0 1 0  0 0 0 0 0  0 0 0 0 1" result="displacementYFinal" />
<feComposite in="displacementXFinal" in2="displacementYFinal" operator="arithmetic" k1="0" k2="1" k3="1" k4="0" />
<feComposite in2="displacementAlphasMultiplied" operator="in" result="displacementMap" />
<feFlood flood-color="rgb(127, 127, 127)" flood-opacity="1"/>
<feComposite in2="displacementAlphasMultiplied" operator="out" />
<feComposite in2="displacementMap" operator="over" result="displacementMapWithBg"/>
<feDisplacementMap in="effect3_innerShadow_19_5" scale="10.279999732971191" xChannelSelector="R" yChannelSelector="G" width="100%" height="100%" result="displacedImage" />
<feColorMatrix in="effect3_innerShadow_19_5" type="matrix" values="1 0 0 0 0  0 1 0 0 0  0 0 1 0 0  0 0 0 127 0" result="imageOpaque" />
<feDisplacementMap in="imageOpaque" in2="displacementMapWithBg" scale="10.279999732971191" xChannelSelector="R" yChannelSelector="G" width="100%" height="100%" result="displacedImageOpaque" />
<feColorMatrix in="displacedImage" type="matrix" values="0 0 0 1 0  0 0 0 0 0  0 0 0 0 0  0 0 0 127 0" result="displacedImageRed" />
<feColorMatrix in="effect3_innerShadow_19_5" type="matrix" values="0 0 0 1 0  0 0 0 0 0  0 0 0 0 0  0 0 0 127 0" />
<feComposite in="displacedImageRed"  operator="atop" result="transparencyRedMap"/>
<feColorMatrix in="transparencyRedMap" type="matrix" values="0 0 0 0 0  0 0 0 0 0  0 0 0 0 0  1 0 0 0 0" result="transparencyAlphaMap" />
<feComposite in="displacedImageOpaque" in2="imageOpaque" operator="over" />
<feComposite in2="transparencyAlphaMap" operator="in" result="effect4_texture_19_5"/>
<feBlend mode="normal" in="effect4_texture_19_5" in2="effect1_dropShadow_19_5" result="effect4_texture_19_5"/>
</filter>
<filter id="filter1_diiig_19_5" x="26.2376" y="14.1229" width="79.042" height="83.7271" filterUnits="userSpaceOnUse" color-interpolation-filters="sRGB">
<feFlood flood-opacity="0" result="BackgroundImageFix"/>
<feColorMatrix in="SourceAlpha" type="matrix" values="0 0 0 0 0 0 0 0 0 0 0 0 0 0 0 0 0 0 127 0" result="hardAlpha"/>
<feOffset dy="4"/>
<feGaussianBlur stdDeviation="2"/>
<feColorMatrix type="matrix" result="shdwTex" values="0 0 0 0 0 0 0 0 0 0 0 0 0 0 0 0 0 0 0.25 0"/><feTurbulence type="fractalNoise" baseFrequency="0.022909507155418396 0.022909507155418396" numOctaves="3" seed="3227" />
<feDisplacementMap in="shdwTex" scale="12.640000343322754" xChannelSelector="R" yChannelSelector="G" result="displacedImage" width="100%" height="100%" />
<feBlend mode="normal" in2="BackgroundImageFix" result="effect1_dropShadow_19_5"/>
<feBlend mode="normal" in="SourceGraphic" in2="BackgroundImageFix" result="shape"/>
<feColorMatrix in="SourceAlpha" type="matrix" values="0 0 0 0 0 0 0 0 0 0 0 0 0 0 0 0 0 0 127 0" result="hardAlpha"/>
<feOffset dx="-1" dy="-1"/>
<feGaussianBlur stdDeviation="2"/>
<feComposite in2="hardAlpha" operator="arithmetic" k2="-1" k3="1"/>
<feColorMatrix type="matrix" values="0 0 0 0 0.91457 0 0 0 0 0.742074 0 0 0 0 0.871446 0 0 0 0.2 0"/>
<feBlend mode="normal" in2="shape" result="effect2_innerShadow_19_5"/>
<feColorMatrix in="SourceAlpha" type="matrix" values="0 0 0 0 0 0 0 0 0 0 0 0 0 0 0 0 0 0 127 0" result="hardAlpha"/>
<feOffset dx="1" dy="1"/>
<feGaussianBlur stdDeviation="2"/>
<feComposite in2="hardAlpha" operator="arithmetic" k2="-1" k3="1"/>
<feColorMatrix type="matrix" values="0 0 0 0 0.91457 0 0 0 0 0.742074 0 0 0 0 0.871446 0 0 0 0.4 0"/>
<feBlend mode="normal" in2="effect2_innerShadow_19_5" result="effect3_innerShadow_19_5"/>
<feColorMatrix in="SourceAlpha" type="matrix" values="0 0 0 0 0 0 0 0 0 0 0 0 0 0 0 0 0 0 127 0" result="hardAlpha"/>
<feOffset/>
<feGaussianBlur stdDeviation="2"/>
<feComposite in2="hardAlpha" operator="arithmetic" k2="-1" k3="1"/>
<feColorMatrix type="matrix" values="0 0 0 0 0.91457 0 0 0 0 0.742074 0 0 0 0 0.871446 0 0 0 0.3 0"/>
<feBlend mode="normal" in2="effect3_innerShadow_19_5" result="effect4_innerShadow_19_5"/>
<feTurbulence type="fractalNoise" baseFrequency="0.022909507155418396 0.022909507155418396" numOctaves="3" seed="3227" result="displacementX" />
<feTurbulence type="fractalNoise" baseFrequency="0.022909507155418396 0.022909507155418396" numOctaves="3" seed="3228" result="displacementY" />
<feColorMatrix in="displacementX" type="matrix" values="0 0 0 1 0  0 0 0 0 0  0 0 0 0 0  0 0 0 0 1" result="displacementXRed" />
<feColorMatrix in="displacementY" type="matrix" values="0 0 0 0 0  0 0 0 1 0  0 0 0 0 0  0 0 0 0 1" />
<feComposite in="displacementXRed" operator="arithmetic" k1="0" k2="1" k3="1" k4="0"/>
<feDisplacementMap in="effect4_innerShadow_19_5" scale="12.640000343322754" xChannelSelector="R" yChannelSelector="G" width="100%" height="100%" />
<feColorMatrix type="matrix" values="0 0 0 0 0  0 0 0 0 0  0 0 0 0 0  0 0 0 1 0" />
<feComponentTransfer result="sourceDisplacedAlpha">
<feFuncA type="gamma" exponent="0.2" />
</feComponentTransfer>
<feColorMatrix in="effect4_innerShadow_19_5" type="matrix" values="0 0 0 0 0  0 0 0 0 0  0 0 0 0 0  0 0 0 1 0" />
<feComponentTransfer result="inputSourceAlpha">
<feFuncA type="gamma" exponent="0.2" />
</feComponentTransfer>
<feComposite in="sourceDisplacedAlpha" operator="arithmetic" k1="1" k2="0" k3="0" k4="0" result="displacementAlphasMultiplied"/>
<feComposite in="displacementAlphasMultiplied"  operator="arithmetic" k1="0" k2="0" k3="-0.5" k4="0.5" result="centeringAdjustment"/>
<feComposite in="displacementX" in2="displacementAlphasMultiplied" operator="arithmetic" k1="1" k2="0" k3="0" k4="0" />
<feComposite in="centeringAdjustment" operator="arithmetic" k1="0" k2="1" k3="1" k4="0" />
<feColorMatrix  type="matrix" values="0 0 0 1 0  0 0 0 0 0  0 0 0 0 0  0 0 0 0 1" result="displacementXFinal" />
<feComposite in="displacementY" in2="displacementAlphasMultiplied" operator="arithmetic" k1="1" k2="0" k3="0" k4="0" />
<feComposite in="centeringAdjustment" operator="arithmetic" k1="0" k2="1" k3="1" k4="0" />
<feColorMatrix  type="matrix" values="0 0 0 0 0  0 0 0 1 0  0 0 0 0 0  0 0 0 0 1" result="displacementYFinal" />
<feComposite in="displacementXFinal" in2="displacementYFinal" operator="arithmetic" k1="0" k2="1" k3="1" k4="0" />
<feComposite in2="displacementAlphasMultiplied" operator="in" result="displacementMap" />
<feFlood flood-color="rgb(127, 127, 127)" flood-opacity="1"/>
<feComposite in2="displacementAlphasMultiplied" operator="out" />
<feComposite in2="displacementMap" operator="over" result="displacementMapWithBg"/>
<feDisplacementMap in="effect4_innerShadow_19_5" scale="12.640000343322754" xChannelSelector="R" yChannelSelector="G" width="100%" height="100%" result="displacedImage" />
<feColorMatrix in="effect4_innerShadow_19_5" type="matrix" values="1 0 0 0 0  0 1 0 0 0  0 0 1 0 0  0 0 0 127 0" result="imageOpaque" />
<feDisplacementMap in="imageOpaque" in2="displacementMapWithBg" scale="12.640000343322754" xChannelSelector="R" yChannelSelector="G" width="100%" height="100%" result="displacedImageOpaque" />
<feColorMatrix in="displacedImage" type="matrix" values="0 0 0 1 0  0 0 0 0 0  0 0 0 0 0  0 0 0 127 0" result="displacedImageRed" />
<feColorMatrix in="effect4_innerShadow_19_5" type="matrix" values="0 0 0 1 0  0 0 0 0 0  0 0 0 0 0  0 0 0 127 0" />
<feComposite in="displacedImageRed"  operator="atop" result="transparencyRedMap"/>
<feColorMatrix in="transparencyRedMap" type="matrix" values="0 0 0 0 0  0 0 0 0 0  0 0 0 0 0  1 0 0 0 0" result="transparencyAlphaMap" />
<feComposite in="displacedImageOpaque" in2="imageOpaque" operator="over" />
<feComposite in2="transparencyAlphaMap" operator="in" result="effect5_texture_19_5"/>
<feBlend mode="normal" in="effect5_texture_19_5" in2="effect1_dropShadow_19_5" result="effect5_texture_19_5"/>
</filter>
</defs>
</svg>
